HIERARCHY
ROOT Hips
{
	OFFSET 0.00000 0.00000 0.00000
	CHANNELS 6 Xposition Yposition Zposition Zrotation Yrotation Xrotation 
	JOINT LHipJoint
	{
		OFFSET 0 0 0
		CHANNELS 3 Zrotation Yrotation Xrotation
		JOINT LeftUpLeg
		{
			OFFSET 1.56857 -1.73443 1.15205
			CHANNELS 3 Zrotation Yrotation Xrotation
			JOINT LeftLeg
			{
				OFFSET 2.39362 -6.57643 0.00000
				CHANNELS 3 Zrotation Yrotation Xrotation
				JOINT LeftFoot
				{
					OFFSET 2.50952 -6.89485 0.00000
					CHANNELS 3 Zrotation Yrotation Xrotation
					JOINT LeftToeBase
					{
						OFFSET 0.17171 -0.47178 1.88682
						CHANNELS 3 Zrotation Yrotation Xrotation
						End Site
						{
							OFFSET 0.00000 -0.00000 0.98146
						}
					}
				}
			}
		}
	}
	JOINT RHipJoint
	{
		OFFSET 0 0 0
		CHANNELS 3 Zrotation Yrotation Xrotation
		JOINT RightUpLeg
		{
			OFFSET -1.28153 -1.73443 1.15205
			CHANNELS 3 Zrotation Yrotation Xrotation
			JOINT RightLeg
			{
				OFFSET -2.26861 -6.23296 0.00000
				CHANNELS 3 Zrotation Yrotation Xrotation
				JOINT RightFoot
				{
					OFFSET -2.54143 -6.98254 0.00000
					CHANNELS 3 Zrotation Yrotation Xrotation
					JOINT RightToeBase
					{
						OFFSET -0.23309 -0.64041 1.93119
						CHANNELS 3 Zrotation Yrotation Xrotation
						End Site
						{
							OFFSET -0.00000 -0.00000 1.02013
						}
					}
				}
			}
		}
	}
	JOINT LowerBack
	{
		OFFSET 0 0 0
		CHANNELS 3 Zrotation Yrotation Xrotation
		JOINT Spine
		{
			OFFSET -0.07096 2.10460 -0.27878
			CHANNELS 3 Zrotation Yrotation Xrotation
			JOINT Spine1
			{
				OFFSET -0.00826 2.13662 -0.08279
				CHANNELS 3 Zrotation Yrotation Xrotation
				JOINT Neck
				{
					OFFSET 0 0 0
					CHANNELS 3 Zrotation Yrotation Xrotation
					JOINT Neck1
					{
						OFFSET 0.03239 1.77799 0.24435
						CHANNELS 3 Zrotation Yrotation Xrotation
						JOINT Head
						{
							OFFSET 0.01026 1.74194 -0.49664
							CHANNELS 3 Zrotation Yrotation Xrotation
							End Site
							{
								OFFSET 0.00170 1.83057 -0.19653
							}
						}
					}
				}
				JOINT LeftShoulder
				{
					OFFSET 0 0 0
					CHANNELS 3 Zrotation Yrotation Xrotation
					JOINT LeftArm
					{
						OFFSET 3.19178 1.35907 -0.31412
						CHANNELS 3 Zrotation Yrotation Xrotation
						JOINT LeftForeArm
						{
							OFFSET 4.85247 -0.00000 -0.00000
							CHANNELS 3 Zrotation Yrotation Xrotation
							JOINT LeftHand
							{
								OFFSET 3.55584 -0.00000 0.00000
								CHANNELS 3 Zrotation Yrotation Xrotation
								JOINT LeftFingerBase
								{
									OFFSET 0 0 0
									CHANNELS 3 Zrotation Yrotation Xrotation
									JOINT LeftHandIndex1
									{
										OFFSET 0.69320 -0.00000 0.00000
										CHANNELS 3 Zrotation Yrotation Xrotation
										End Site
										{
											OFFSET 0.55888 -0.00000 0.00000
										}
									}
								}
								JOINT LThumb
								{
									OFFSET 0 0 0
									CHANNELS 3 Zrotation Yrotation Xrotation
									End Site
									{
										OFFSET 0.56741 -0.00000 0.56741
									}
								}
							}
						}
					}
				}
				JOINT RightShoulder
				{
					OFFSET 0 0 0
					CHANNELS 3 Zrotation Yrotation Xrotation
					JOINT RightArm
					{
						OFFSET -3.28999 1.24191 -0.26899
						CHANNELS 3 Zrotation Yrotation Xrotation
						JOINT RightForeArm
						{
							OFFSET -4.64462 -0.00000 0.00000
							CHANNELS 3 Zrotation Yrotation Xrotation
							JOINT RightHand
							{
								OFFSET -3.40703 -0.00000 0.00000
								CHANNELS 3 Zrotation Yrotation Xrotation
								JOINT RightFingerBase
								{
									OFFSET 0 0 0
									CHANNELS 3 Zrotation Yrotation Xrotation
									JOINT RightHandIndex1
									{
										OFFSET -0.61958 -0.00000 0.00000
										CHANNELS 3 Zrotation Yrotation Xrotation
										End Site
										{
											OFFSET -0.49952 -0.00000 0.00000
										}
									}
								}
								JOINT RThumb
								{
									OFFSET 0 0 0
									CHANNELS 3 Zrotation Yrotation Xrotation
									End Site
									{
										OFFSET -0.50715 -0.00000 0.50715
									}
								}
							}
						}
					}
				}
			}
		}
	}
}
MOTION
Frames: 7
Frame Time: 0.0512821
0.00 0.00 0.00 0 0 0 0 0 0 -21 0 0 0 0 0 0 0 0 0 0 0 0 0 0 21 0 0 0 0 0 0 0 0 0 0 0 0 0 0 0 0 0 0 0 0 0 0 -16 0 0 21 0 0 11 0 0 0 -8 0 0 0 0 0 0 0 0 0 0 0 0 0 0 0 0 0 0 0 0 8 0 0 0 0 0 0 0 0 0 0 0 0 0 0 0 0 0
0.00 0.00 0.00 49.6184 86.0735 53.7360 0.0000 0.0000 0.0000 -15.8526 3.4810 9.5403 0.0073 0.5507 1.5134 1.4119 0.3139 -22.5905 1.4318 -7.5658 -21.4029 0.0000 0.0000 0.0000 12.1287 -5.6170 4.8664 -0.1981 -2.8663 7.9066 -2.0824 4.6225 -26.2372 -0.0466 -1.3924 3.8293 -6.2510 1.0017 3.0546 -0.4395 1.1420 0.5611 3.0037 0.6011 -1.2479 3.0511 1.3591 -23.6319 1.4493 0.5868 27.7776 0.1881 0.9112 13.3151 -0.0000 0.0000 0.0000 -72.9972 1.2058 65.1396 25.3181 -36.5274 -8.4785 -0.0000 -0.0000 2.0481 13.8890 -18.8997 -4.5793 -7.1250 0.0000 -0.0000 -9.2972 10.7507 7.5018 -0.0000 0.0000 0.0000 73.3388 -17.7011 56.2435 -29.6864 40.6230 -11.2049 0.0000 -0.0000 -6.6370 -9.5551 -33.0083 5.2394 7.1250 -0.0000 -0.0000 26.9301 -61.3110 -11.1486
0.00 0.00 0.00 31.9731 85.8575 37.5335 0.0000 0.0000 0.0000 -15.8447 1.4720 1.7932 0.9305 6.1449 17.2054 1.8692 0.4569 -26.0419 0.5232 -4.6357 -12.8725 0.0000 0.0000 0.0000 13.1697 -5.8764 4.6876 -0.2543 -3.2444 8.9600 -2.3941 5.1488 -28.1425 -0.0217 0.9514 -2.6151 -3.7172 1.0202 5.7768 0.6898 1.1607 0.9080 2.7081 0.6183 -2.3904 4.9122 2.6050 -24.9010 -0.8831 2.3189 28.4281 -0.7157 1.5237 13.9271 -0.0000 0.0000 0.0000 -67.1065 4.7190 70.4702 36.4656 -45.8308 -15.8556 -0.0000 0.0000 -3.7049 18.0488 -20.8500 -6.6157 -7.1250 0.0000 -0.0000 -6.7012 8.2717 5.7076 -0.0000 0.0000 0.0000 60.2410 -19.3898 68.6591 -37.9049 46.7784 -16.8962 0.0000 -0.0000 -15.1490 -7.1043 -32.1392 3.7933 7.1250 -0.0000 -0.0000 28.6264 -59.9688 -10.9939
0.00 0.00 0.00 -5.0536 87.1213 -0.0990 0.0000 0.0000 0.0000 -13.4127 -0.0348 -6.9063 3.6307 11.6520 34.5117 1.8302 1.0370 -25.9771 0.1911 -2.8152 -7.7647 0.0000 0.0000 0.0000 16.3200 -6.0042 4.7903 -0.4063 -4.0919 11.3354 -2.6208 4.5201 -29.6084 -0.0420 1.3226 -3.6368 0.1235 1.2873 9.1495 1.8261 1.8535 2.4274 1.6081 0.9542 -2.6665 5.6192 2.5672 -24.0157 -1.8558 2.2499 25.9495 -1.2391 1.3760 12.7371 -0.0000 -0.0000 0.0000 -68.9141 5.8710 67.2245 38.8798 -47.3921 -17.6103 -0.0000 0.0000 -4.7942 21.8629 -21.2425 -8.2716 -7.1250 0.0000 -0.0000 -4.3029 7.3065 3.7316 -0.0000 -0.0000 0.0000 60.1582 -17.6371 63.8081 -35.8918 45.4385 -15.4453 0.0000 -0.0000 -16.0831 -10.0063 -29.6221 4.9842 7.1250 -0.0000 -0.0000 23.5773 -58.3890 -8.0069
0.00 0.00 0.00 -45.8832 85.6339 -39.2306 0.0000 0.0000 0.0000 -10.2129 -0.3170 -28.3597 7.4568 15.7048 50.5815 1.4545 -1.9865 -22.2459 0.4801 -4.4434 -12.3276 0.0000 0.0000 0.0000 20.6036 -4.0687 5.5095 -0.4559 -4.3316 12.0116 -2.9951 3.1291 -32.0222 -0.0908 1.9438 -5.3504 4.1651 2.5351 12.8096 2.8139 4.1673 4.3007 -0.0228 2.1543 -2.5704 4.9841 1.1304 -21.9378 -2.4265 0.6129 21.5218 -1.5967 0.4311 10.5642 -0.0000 -0.0000 0.0000 -80.0423 9.7701 52.6142 32.2750 -42.7653 -12.9272 -0.0000 0.0000 -12.0094 37.6457 -26.9038 -19.2412 -7.1250 0.0000 -0.0000 4.3958 -2.5878 -4.6031 -0.0000 -0.0000 0.0000 72.1514 -6.7237 42.3546 -22.8723 33.9489 -7.0668 0.0000 -0.0000 -6.5596 -20.8304 -30.3874 10.8939 7.1250 -0.0000 -0.0000 12.5670 -61.6498 -5.1372
0.00 0.00 0.00 -85.2270 79.0657 -73.5300 0.0000 0.0000 0.0000 2.4462 -2.4975 -58.0947 6.4039 14.8086 46.5819 0.6619 -6.2970 -14.5239 0.4309 -4.2128 -11.6761 0.0000 0.0000 0.0000 26.8117 -12.2513 13.9356 -0.0444 -1.3592 3.7377 -3.1429 9.2415 -32.0569 -0.6225 5.0491 -14.0485 9.4060 3.0498 15.2561 2.2177 5.7717 5.2143 -3.8783 3.0383 -2.2718 3.6731 0.0646 -21.0899 -6.7939 0.4773 16.8789 -2.8636 -0.2670 8.7731 0.0000 -0.0000 0.0000 -75.8558 32.3648 56.5721 29.2525 -40.2440 -10.9235 -0.0000 0.0000 -36.0910 32.9446 -14.5307 -9.2349 -7.1250 0.0000 -0.0000 3.6396 12.8421 -2.7453 0.0000 -0.0000 0.0000 78.8862 12.0262 62.4979 -56.3506 55.2564 -31.3229 0.0000 -0.0000 -16.9296 -18.8888 -24.0069 7.9250 7.1250 -0.0000 -0.0000 11.1260 -54.8416 -2.7144
0.00 0.00 0.00 -67.3564 79.8848 -57.8493 0.0000 0.0000 0.0000 1.1956 -2.6459 -55.1234 9.1049 16.8748 56.4522 0.7444 -5.9470 -15.3780 0.1880 -2.7924 -7.7013 0.0000 0.0000 0.0000 24.8063 -8.0597 22.7236 -0.0890 -1.9241 5.2959 -3.3726 7.3702 -33.4047 -1.1588 6.8342 -19.2252 4.8924 3.8342 18.2882 -0.7056 6.1909 6.4092 -4.7305 3.2725 -2.7045 2.4267 -0.0320 -20.8980 -4.6918 0.1495 14.1209 -1.9419 -0.2692 7.7851 0.0000 0.0000 0.0000 -60.9431 42.8398 69.0911 41.9027 -49.1576 -19.8669 -0.0000 0.0000 -33.8352 31.4121 -15.3900 -9.2059 -7.1250 0.0000 -0.0000 2.5142 12.1170 -1.9323 0.0000 0.0000 0.0000 72.8759 17.1453 72.4798 -83.4188 59.8357 -54.3036 0.0000 -0.0000 -11.7969 -19.0650 -21.9836 7.3715 7.1250 -0.0000 -0.0000 10.1093 -52.8273 -1.9631
